<svg width="20" height="20" viewBox="0 0 20 20" fill="none" xmlns="http://www.w3.org/2000/svg">
  <path d="M9.99984 6.66667C8.16651 6.66667 6.6665 8.16667 6.6665 10C6.6665 11.8333 8.16651 13.3333 9.99984 13.3333C11.8332 13.3333 13.3332 11.8333 13.3332 10C13.3332 8.16667 11.8332 6.66667 9.99984 6.66667ZM19.9998 10C19.9998 8.61667 20.0132 7.25 19.9265 5.86667C19.8398 4.27 19.4932 2.85 18.3198 1.68C17.1432 0.506667 15.7298 0.16 14.1332 0.0733334C12.7465 -0.0133333 11.3798 0 9.99984 0C8.6165 0 7.24984 -0.0133333 5.8665 0.0733334C4.27317 0.16 2.85317 0.51 1.6798 1.68C0.503171 2.85 0.159837 4.27 0.0731704 5.86667C-0.0134962 7.25 0.000170367 8.61667 0.000170367 10C0.000170367 11.3833 -0.0134962 12.75 0.0731704 14.1333C0.159837 15.73 0.506504 17.15 1.6798 18.32C2.8565 19.4933 4.27317 19.84 5.8665 19.9267C7.25317 20.0133 8.61984 20 9.99984 20C11.3832 20 12.7498 20.0133 14.1332 19.9267C15.7265 19.84 17.1465 19.49 18.3198 18.32C19.4965 17.15 19.8398 15.73 19.9265 14.1333C20.0165 12.75 19.9998 11.3833 19.9998 10ZM9.99984 15.1333C7.15984 15.1333 4.8665 12.84 4.8665 10C4.8665 7.16 7.15984 4.86667 9.99984 4.86667C12.8398 4.86667 15.1332 7.16 15.1332 10C15.1332 12.84 12.8398 15.1333 9.99984 15.1333ZM15.3332 5.86667C14.6765 5.86667 14.1332 5.32 14.1332 4.66667C14.1332 4.01333 14.6765 3.46667 15.3332 3.46667C15.9898 3.46667 16.5332 4.01333 16.5332 4.66667C16.5335 4.82304 16.5029 4.97773 16.4434 5.12C16.384 5.26227 16.2969 5.38877 16.1878 5.49788C16.0787 5.60698 15.9497 5.69388 15.8075 5.75334C15.6652 5.81281 15.5105 5.84342 15.3542 5.84333L15.3332 5.86667Z" fill="white"/>
</svg> 