<svg width="20" height="20" viewBox="0 0 20 20" fill="none" xmlns="http://www.w3.org/2000/svg">
  <path d="M17.2138 0H2.78624C1.247 0 0 1.247 0 2.78624V17.2138C0 18.753 1.247 20 2.78624 20H17.2138C18.753 20 20 18.753 20 17.2138V2.78624C20 1.247 18.753 0 17.2138 0Z" fill="transparent"/>
  <path d="M15.6595 7.29142C15.6699 7.43142 15.6699 7.57142 15.6699 7.71075C15.6699 11.3509 12.9197 15.5517 7.86034 15.5517C6.25953 15.5517 4.76577 15.0606 3.5 14.2208C3.74717 14.2486 3.98401 14.2589 4.24151 14.2589C5.58143 14.2589 6.81754 13.7887 7.80339 13.0007C6.54625 12.9729 5.49519 12.1539 5.14608 11.0273C5.33754 11.0551 5.52901 11.0726 5.73079 11.0726C6.01935 11.0726 6.30793 11.0273 6.57576 10.9471C5.26689 10.6794 4.27071 9.52344 4.27071 8.12725V8.08911C4.63049 8.29089 5.04404 8.41954 5.48487 8.43989C4.7056 7.91042 4.19677 7.0289 4.19677 6.03271C4.19677 5.48255 4.34711 4.97373 4.60461 4.53952C6.01935 6.28988 8.13183 7.43143 10.4968 7.56975C10.4482 7.36796 10.4197 7.15584 10.4197 6.94371C10.4197 5.35325 11.7082 4.05469 13.3094 4.05469C14.1387 4.05469 14.8872 4.39348 15.4166 4.94365C16.0701 4.81499 16.693 4.55749 17.2432 4.2068C17.0414 4.9136 16.5939 5.48255 16.0037 5.84267C16.5732 5.77905 17.1233 5.61837 17.6331 5.39592C17.2432 5.97521 16.7345 6.49438 16.1535 6.90793C15.6595 7.29142 15.6595 7.29142 15.6595 7.29142Z" fill="white"/>
</svg> 